<svg width="544" height="115" viewBox="0 0 544 115" xmlns="http://www.w3.org/2000/svg"><title>meduza correct</title><path d="M59.1 49.656v56.359l25.848 8.225V49.656h16.627v56.359l25.696 8.225 16.778-22.848h-16.627V35.795l-25.696-8.987L84.948 46.61V35.795l-25.696-8.987L42.474 46.61V35.795l-25.696-8.987L0 49.656h16.627v56.359l25.847 8.225V49.656h16.627zm277.518 41.736V35.034l-25.847-8.226v78.445l25.696 8.987 16.778-19.802v10.815l25.696 8.987 16.778-22.848h-16.627V35.034l-25.847-8.226v64.584h-16.627zM527.373 38.08l-25.242-11.272-29.929 14.318 29.929 11.272-41.114 19.954v32.596l25.847 9.292 15.267-19.954v10.967l25.847 8.987 16.022-23h-16.627V38.08zm-349.92 76.16l29.627-11.881-29.626-11.12V75.247L216.3 56.358l-22.068-29.55-42.625 20.564v55.749l25.847 11.119zm277.971-24.676l-31.44-9.596 29.475-37.775-36.881-15.385-19.348 24.676 31.591 9.749-30.08 37.623 37.336 15.384 19.347-24.676zm31.44 1.828V68.849l15.267-7.312v29.855h-15.267zm-309.41-49.809l12.999 17.974-13 6.245V41.583zm45.497 61.538l25.847 11.119 42.474-17.06V29.702L222.951 0v26.308l42.474 16.907v54.117l-16.627-6.092V43.716l-25.847 8.225v51.18z" fill="#B88B58" fill-rule="evenodd"/></svg>